<svg width="200" height="200" viewBox="0 0 200 200" fill="none" xmlns="http://www.w3.org/2000/svg">
<path fill-rule="evenodd" clip-rule="evenodd" d="M36.6391 100C36.6391 80.0816 52.7825 63.9488 72.6904 63.9488C82.6546 63.9488 91.6555 67.9737 98.1861 74.5043C104.306 80.624 108.225 88.9129 108.694 98.131L105.808 103.903L99.5206 116.474C93.3516 128.484 80.9772 136.051 67.4531 136.051H36.6391V100ZM88.3034 148.391C81.8312 151.181 74.7568 152.691 67.4531 152.691H29.7062C24.3456 152.691 20.0001 148.344 20.0001 142.984V100C20.0001 70.8888 43.5963 47.3096 72.6904 47.3096C87.2412 47.3096 100.426 53.2127 109.952 62.7387C113.86 66.6467 117.158 71.1705 119.689 76.1519L125.022 65.4878C128.6 58.333 138.806 58.333 142.384 65.4878L178.962 138.644C182.193 145.092 177.491 152.691 170.281 152.691H118.617L126.937 136.051H159.064L143.007 103.925L139.333 96.6029L133.703 85.33L130.319 92.0965L115.172 122.393C115.108 122.52 115.042 122.65 114.973 122.78L114.581 123.564C109.486 133.753 101.355 141.801 91.6014 146.831C90.3444 147.593 89.2239 148.133 88.3034 148.391Z" fill="#169BFA"/>
</svg>
