<svg width="32" height="32" viewBox="0 0 32 32" fill="none" xmlns="http://www.w3.org/2000/svg">
<path fill-rule="evenodd" clip-rule="evenodd" d="M3.32779 16C3.32779 12.0163 6.55647 8.78974 10.538 8.78974C12.5309 8.78974 14.3311 9.59472 15.6372 10.9008C16.8612 12.1248 17.6449 13.7825 17.7387 15.6262L17.1615 16.7806L15.9041 19.2947C14.6703 21.6967 12.1954 23.2101 9.49058 23.2101H3.32779V16ZM13.6606 25.6781C12.3662 26.2361 10.9513 26.5381 9.49058 26.5381H1.94122C0.869099 26.5381 0 25.6687 0 24.5967V16C0 10.1777 4.71923 5.46191 10.538 5.46191C13.4482 5.46191 16.0852 6.64253 17.9903 8.54772C18.7719 9.32932 19.4315 10.2341 19.9377 11.2304L21.0043 9.09754C21.7199 7.66659 23.7611 7.66659 24.4767 9.09754L31.7923 23.7287C32.4385 25.0183 31.4981 26.5381 30.0561 26.5381H19.7233L21.3873 23.2101H27.8127L24.6013 16.785L23.8665 15.3205L22.7405 13.066L22.0637 14.4193L19.0343 20.4785C19.0215 20.5039 19.0083 20.5299 18.9945 20.5559L18.9161 20.7127C17.8971 22.7505 16.271 24.3601 14.3202 25.3661C14.0688 25.5185 13.8447 25.6265 13.6606 25.6781Z" fill="#169BFA"/>
</svg>
