<svg width="200" height="200" viewBox="0 0 200 200" fill="none" xmlns="http://www.w3.org/2000/svg">
<path fill-rule="evenodd" clip-rule="evenodd" d="M28.7189 99.9999C28.7189 77.5917 46.8802 59.4422 69.2767 59.4422C80.4864 59.4422 90.6124 63.9703 97.9594 71.3172C104.844 78.2019 109.253 87.5269 109.781 97.8972L106.534 104.391L99.4607 118.533C92.5205 132.044 78.5993 140.557 63.3847 140.557H28.7189V99.9999ZM86.8413 154.44C79.5601 157.578 71.6014 159.277 63.3847 159.277H20.9193C14.8887 159.277 10 154.387 10 148.357V99.9999C10 67.2497 36.5457 40.7231 69.2767 40.7231C85.6463 40.7231 100.479 47.3641 111.196 58.0809C115.593 62.4774 119.303 67.5667 122.15 73.1707L128.15 61.1736C132.175 53.1245 143.657 53.1245 147.682 61.1736L188.832 143.474C192.467 150.728 187.178 159.277 179.066 159.277H120.944L130.304 140.557H166.447L148.383 104.415L144.25 96.1781L137.916 83.4961L134.109 91.1084L117.068 125.192C116.996 125.335 116.922 125.481 116.845 125.627L116.404 126.509C110.672 137.972 101.524 147.026 90.5516 152.685C89.1375 153.542 87.8769 154.15 86.8413 154.44Z" fill="#169BFA"/>
</svg>
