<svg width="200" height="200" viewBox="0 0 200 200" fill="none" xmlns="http://www.w3.org/2000/svg">
<g filter="url(#filter0_i_1316_5486)">
<path fill-rule="evenodd" clip-rule="evenodd" d="M48.0733 99.9999C48.0733 83.676 61.3034 70.4545 77.6188 70.4545C85.7848 70.4545 93.1614 73.7531 98.5135 79.1052C103.529 84.1205 106.741 90.9136 107.125 98.4681L104.76 103.199L99.6072 113.501C94.5514 123.343 84.4101 129.545 73.3266 129.545H48.0733V99.9999ZM90.4142 139.658C85.11 141.944 79.3123 143.182 73.3266 143.182H42.3915C37.9983 143.182 34.437 139.62 34.437 135.227V99.9999C34.437 76.1421 53.775 56.8181 77.6188 56.8181C89.5437 56.8181 100.349 61.6559 108.156 69.4628C111.359 72.6656 114.062 76.373 116.136 80.4554L120.507 71.7158C123.439 65.8522 131.803 65.8522 134.735 71.7158L164.712 131.67C167.36 136.954 163.507 143.182 157.598 143.182H115.257L122.076 129.545H148.405L135.246 103.216L132.235 97.2158L127.621 87.9772L124.848 93.5226L112.434 118.352C112.381 118.456 112.327 118.562 112.271 118.669L111.95 119.311C107.774 127.662 101.11 134.257 93.1171 138.38C92.0869 139.004 91.1686 139.447 90.4142 139.658Z" fill="#169BFA"/>
</g>
<defs>
<filter id="filter0_i_1316_5486" x="34.437" y="56.8181" width="131.126" height="86.3636" filterUnits="userSpaceOnUse" color-interpolation-filters="sRGB">
<feFlood flood-opacity="0" result="BackgroundImageFix"/>
<feBlend mode="normal" in="SourceGraphic" in2="BackgroundImageFix" result="shape"/>
<feColorMatrix in="SourceAlpha" type="matrix" values="0 0 0 0 0 0 0 0 0 0 0 0 0 0 0 0 0 0 127 0" result="hardAlpha"/>
<feOffset/>
<feGaussianBlur stdDeviation="1.11111"/>
<feComposite in2="hardAlpha" operator="arithmetic" k2="-1" k3="1"/>
<feColorMatrix type="matrix" values="0 0 0 0 0 0 0 0 0 0.583333 0 0 0 0 1 0 0 0 0.24 0"/>
<feBlend mode="normal" in2="shape" result="effect1_innerShadow_1316_5486"/>
</filter>
</defs>
</svg>
